<?xml version="1.0" encoding="UTF-8" standalone="no"?>
<!-- Created with Inkscape (http://www.inkscape.org/) -->

<svg
   width="243.15108mm"
   height="29.150642mm"
   viewBox="0 0 243.15108 29.150642"
   version="1.1"
   id="svg5"
   xml:space="preserve"
   inkscape:export-filename="contact.svg"
   inkscape:export-xdpi="96"
   inkscape:export-ydpi="96"
   xmlns:inkscape="http://www.inkscape.org/namespaces/inkscape"
   xmlns:sodipodi="http://sodipodi.sourceforge.net/DTD/sodipodi-0.dtd"
   xmlns="http://www.w3.org/2000/svg"
   xmlns:svg="http://www.w3.org/2000/svg"><sodipodi:namedview
     id="namedview7"
     pagecolor="#ffffff"
     bordercolor="#000000"
     borderopacity="0.25"
     inkscape:showpageshadow="2"
     inkscape:pageopacity="0.0"
     inkscape:pagecheckerboard="0"
     inkscape:deskcolor="#d1d1d1"
     inkscape:document-units="mm"
     showgrid="false" /><defs
     id="defs2" /><g
     inkscape:label="Calque 1"
     inkscape:groupmode="layer"
     id="layer1"
     transform="translate(190.00327,-114.76392)"><path
       style="fill:#000000;stroke-width:0.264583"
       d="m -177.221,143.49776 c -1.73611,-0.75509 -2.08591,-2.93836 -1.12591,-7.02742 0.62684,-2.66999 1.67487,-4.51689 2.94579,-5.19122 1.29336,-0.68624 3.92283,-0.65281 4.88956,0.0622 0.89576,0.66247 1.56262,2.37214 1.31307,3.3664 -0.14004,0.55798 -0.3364,0.71067 -0.91394,0.71067 -0.68516,0 -0.72816,-0.0636 -0.62725,-0.92796 0.32867,-2.81525 -3.36144,-3.35759 -5.07934,-0.74651 -0.96611,1.46839 -1.89965,5.95192 -1.51004,7.2523 0.35086,1.17106 1.38862,1.7152 2.71541,1.42379 1.33917,-0.29413 1.98948,-0.84308 2.51621,-2.12402 0.40472,-0.98422 0.59801,-1.17161 1.20932,-1.17244 0.85579,-0.001 0.83237,-0.0999 0.32045,1.35105 -0.99439,2.81841 -3.99223,4.18059 -6.65333,3.0232 z m 11.03398,-0.0762 c -0.67236,-0.33761 -1.06233,-0.80559 -1.44322,-1.73191 -0.51352,-1.24886 -0.5141,-1.30851 -0.0358,-3.70417 0.26736,-1.33918 0.71432,-3.05276 0.99323,-3.80797 1.78617,-4.83637 8.4189,-4.58829 8.4157,0.31477 -0.002,2.69492 -1.37463,7.05537 -2.55838,8.12584 -1.37351,1.24208 -3.78087,1.60215 -5.37153,0.80344 z m 4.14744,-1.6977 c 0.97904,-0.91443 1.2931,-1.66824 1.92533,-4.62116 0.52696,-2.46121 0.54058,-2.75129 0.17077,-3.63636 -0.46883,-1.12208 -1.40013,-1.57729 -2.72026,-1.32963 -1.8574,0.34845 -2.85235,2.09876 -3.54867,6.24279 -0.37975,2.26 -0.12435,3.36237 0.89937,3.88192 0.86476,0.43888 2.51886,0.16725 3.27346,-0.53756 z m 40.11222,1.64267 c -0.99741,-0.60815 -1.66649,-1.77755 -1.66649,-2.9126 0,-1.27267 1.06344,-5.8596 1.60447,-6.92056 2.0832,-4.08512 8.18511,-3.63953 8.18511,0.59771 0,1.24111 -0.0272,1.28724 -0.75984,1.28724 -0.71199,0 -0.75812,-0.0652 -0.73266,-1.03615 0.0682,-2.60278 -2.99302,-3.1407 -4.9098,-0.86274 -0.74077,0.88035 -1.79978,4.7945 -1.79978,6.65206 0,1.51373 0.72737,2.25829 2.20618,2.25829 1.49091,0 2.50483,-0.69857 3.19692,-2.20263 0.42142,-0.91582 0.63608,-1.10466 1.25569,-1.10466 h 0.74738 l -0.51395,1.3526 c -0.63577,1.67322 -1.17048,2.28955 -2.5266,2.91229 -1.39996,0.64286 -3.21257,0.63405 -4.28663,-0.0208 z m 22.224997,0 c -0.997407,-0.60815 -1.666487,-1.77755 -1.666487,-2.9126 0,-1.27267 1.06344,-5.8596 1.604466,-6.92056 2.083199,-4.08512 8.185113,-3.63953 8.185113,0.59771 0,1.24111 -0.02723,1.28724 -0.759836,1.28724 -0.714372,0 -0.758177,-0.0632 -0.732155,-1.05554 0.03965,-1.51199 -0.76603,-2.26042 -2.395556,-2.22535 -1.073523,0.0231 -1.349444,0.15792 -2.208813,1.07921 -0.817912,0.87684 -1.075947,1.45277 -1.543884,3.44593 -1.022735,4.35629 -0.620455,5.76721 1.644341,5.76721 1.490916,0 2.504829,-0.69857 3.196926,-2.20263 0.41888,-0.91031 0.637931,-1.10466 1.245034,-1.10466 h 0.736719 l -0.379569,1.07581 c -0.208764,0.5917 -0.638188,1.43901 -0.954275,1.88292 -1.182095,1.66009 -4.268078,2.32427 -5.972024,1.28531 z m 11.306034,0.17997 c -1.073512,-0.5432 -1.86078,-1.96068 -1.8543,-3.33866 0.0087,-1.84318 0.962062,-5.77915 1.708295,-7.0525 1.153256,-1.96788 3.672507,-2.94585 5.789089,-2.24732 2.065028,0.68152 2.594321,2.5798 1.78929,6.41717 -0.778608,3.71141 -1.898753,5.55266 -3.81952,6.27838 -1.000559,0.37804 -2.809438,0.34946 -3.612854,-0.0571 z m 3.88125,-1.65611 c 0.826109,-0.54129 1.542481,-2.14109 2.059644,-4.5996 0.71569,-3.40227 0.433596,-4.59339 -1.204071,-5.08404 -1.367931,-0.40985 -2.805184,0.2961 -3.613949,1.77508 -1.087089,1.98795 -1.736101,6.39092 -1.113521,7.55422 0.575797,1.07589 2.501686,1.25213 3.871897,0.35434 z m 40.348635,1.552 c -1.732134,-0.85365 -2.023941,-2.6629 -1.102138,-6.83345 0.86097,-3.89531 2.313461,-5.56793 5.108755,-5.883 2.349577,-0.26483 4.229539,1.34757 4.082836,3.50175 -0.06379,0.93668 -0.155716,1.06796 -0.799677,1.14206 -0.682077,0.0785 -0.727604,0.0201 -0.727604,-0.93332 0,-2.02097 -1.631328,-2.96393 -3.551362,-2.05282 -1.329933,0.63109 -1.923185,1.5846 -2.575713,4.13982 -1.112171,4.35512 -0.633638,5.93253 1.783979,5.88062 1.525093,-0.0327 2.503437,-0.74118 3.012022,-2.18105 0.334611,-0.94734 0.495118,-1.10051 1.15316,-1.10051 0.700963,0 0.749575,0.0604 0.585372,0.7276 -0.09849,0.40018 -0.466902,1.22218 -0.818692,1.82667 -1.134906,1.95012 -4.068114,2.7921 -6.150938,1.76563 z m 22.225,0 c -1.73708,-0.85608 -2.048714,-2.81076 -1.098101,-6.88768 0.983512,-4.21801 2.43889,-5.755 5.456526,-5.76252 1.980544,-0.005 2.948877,0.59059 3.501552,2.15349 0.502658,1.42147 0.229991,2.47264 -0.641387,2.47264 -0.586317,0 -0.656418,-0.1099 -0.656418,-1.02902 0,-1.51584 -0.722892,-2.27838 -2.159437,-2.27786 -1.401231,5e-4 -2.618253,0.79172 -3.243056,2.10839 -0.242356,0.51073 -0.682456,2.03112 -0.977998,3.37865 -0.432292,1.97103 -0.481216,2.63919 -0.25023,3.41747 0.718807,2.42194 4.849892,1.58746 5.439908,-1.09886 0.14537,-0.66186 0.303612,-0.7946 0.947253,-0.7946 0.902798,0 0.944594,0.26513 0.271113,1.71979 -1.221851,2.63907 -4.159062,3.79801 -6.589725,2.60011 z m 11.143355,0.0553 c -0.845785,-0.36786 -1.449207,-1.24678 -1.767096,-2.57389 -0.227502,-0.94975 0.73067,-5.80291 1.431517,-7.25066 0.69627,-1.4383 1.8016222,-2.38627 3.2313485,-2.77125 1.9571652,-0.52701 3.8594956,0.14421 4.6238345,1.63148 0.981284,1.90941 -0.4738926,8.50154 -2.2261433,10.08471 -1.3145849,1.18774 -3.6809177,1.58095 -5.2934607,0.87961 z m 4.0689214,-1.77387 c 0.9653138,-0.90161 1.3284597,-1.7384 1.933784,-4.45595 0.8198273,-3.68055 0.2947247,-5.14486 -1.8449528,-5.14486 -2.110052,0 -3.0797526,1.19934 -3.9690326,4.90892 -0.788721,3.2901 -0.634363,4.59733 0.6180927,5.23451 0.8540247,0.43449 2.511081,0.15885 3.2621087,-0.54262 z m 40.2978116,1.6977 c -0.575601,-0.28755 -1.117852,-0.85555 -1.432902,-1.50095 -0.463626,-0.94978 -0.478652,-1.20623 -0.176133,-3.00661 0.965671,-5.74703 2.213531,-7.69473 5.218597,-8.14537 2.462948,-0.36934 4.327937,1.07297 4.327937,3.34707 0,1.27279 -0.01829,1.30262 -0.79879,1.30262 -0.721566,0 -0.782616,-0.0644 -0.631486,-0.66659 0.43856,-1.74737 -1.301239,-3.13504 -3.161025,-2.52125 -1.657813,0.54713 -2.529321,1.95274 -3.183411,5.13437 -0.556334,2.70613 -0.539104,3.67778 0.07874,4.4403 0.417137,0.51482 0.743241,0.62122 1.854943,0.60524 1.106578,-0.0159 1.489782,-0.15442 2.133606,-0.77125 0.431625,-0.41352 0.91582,-1.14893 1.075991,-1.63425 0.241596,-0.73205 0.422786,-0.8824 1.063371,-0.8824 h 0.772152 l -0.51395,1.3526 c -0.635773,1.67322 -1.170485,2.28955 -2.526602,2.91229 -1.339469,0.61508 -2.911959,0.62819 -4.101041,0.0342 z m -190.752404,-0.26418 c 0.007,-0.25466 0.57429,-3.08239 1.2613,-6.28385 l 1.24912,-5.82084 1.47687,-0.0781 1.47687,-0.0782 0.16546,2.19482 c 0.091,1.20716 0.24637,3.83624 0.34526,5.84241 0.0989,2.00616 0.2595,3.69682 0.35689,3.75701 0.0974,0.0602 0.62375,-1.99794 1.1697,-4.57362 0.54595,-2.57568 1.11265,-5.2486 1.25934,-5.93983 0.24689,-1.16345 0.32611,-1.25677 1.06683,-1.25677 0.52953,0 0.7584,0.11185 0.67673,0.33073 -0.0679,0.1819 -0.69436,3.0394 -1.39221,6.35 l -1.26882,6.01927 h -1.50425 -1.50425 l -0.33297,-5.88698 c -0.18313,-3.23783 -0.37794,-5.93378 -0.43291,-5.99099 -0.16402,-0.17072 -0.30488,0.39945 -1.43098,5.79256 -1.34005,6.41771 -1.23048,6.08541 -2.00653,6.08541 -0.44123,0 -0.6398,-0.1456 -0.63145,-0.46302 z m 14.27532,0.11293 c 0,-0.21187 0.47625,-2.59956 1.05834,-5.30595 0.58208,-2.7064 1.05833,-5.1008 1.05833,-5.32088 0,-0.31905 -0.37543,-0.40016 -1.85208,-0.40016 -1.79917,0 -1.85209,-0.0189 -1.85209,-0.66146 v -0.66146 h 4.49792 4.49792 v 0.66146 c 0,0.63709 -0.0628,0.66146 -1.70418,0.66146 -0.9373,0 -1.77427,0.11341 -1.85994,0.25203 -0.0857,0.13861 -0.66868,2.66869 -1.29558,5.62239 -1.12183,5.28566 -1.15093,5.37169 -1.84423,5.45409 -0.47863,0.0569 -0.70441,-0.0398 -0.70441,-0.30152 z m 6.87917,0.21926 c 0,-0.0719 1.39781,-2.92945 3.10624,-6.35 l 3.10623,-6.21917 h 1.38664 c 1.67643,0 1.53257,-0.44567 1.92169,5.95313 0.15929,2.61937 0.35493,5.20898 0.43475,5.75469 0.14095,0.96365 0.12163,0.99218 -0.67188,0.99218 -0.76706,0 -0.81722,-0.0607 -0.82062,-0.99218 -0.008,-2.16611 -0.0293,-2.18282 -2.80156,-2.18282 h -2.47887 l -0.80137,1.5875 c -0.71018,1.40686 -0.89126,1.5875 -1.59131,1.5875 -0.43447,0 -0.78994,-0.0589 -0.78994,-0.13083 z m 8.03595,-7.21135 c -0.0886,-1.56435 -0.24721,-3.26099 -0.35247,-3.77032 -0.18717,-0.90567 -0.23012,-0.84518 -1.95305,2.75074 -0.96893,2.02222 -1.76168,3.71886 -1.76168,3.77031 0,0.0514 0.95137,0.0935 2.11415,0.0935 h 2.11414 z m 18.31776,6.87916 c 0.32358,-1.35686 2.22129,-10.48136 2.22129,-10.68032 0,-0.12856 -0.83344,-0.23374 -1.85208,-0.23374 -1.79917,0 -1.85209,-0.0189 -1.85209,-0.66146 v -0.66146 h 4.49792 4.49792 v 0.66146 c 0,0.64194 -0.0541,0.66146 -1.83404,0.66146 h -1.83404 l -0.41449,1.91823 c -1.3069,6.04813 -2.00285,9.30683 -2.00285,9.37811 0,0.0444 -0.34604,0.0807 -0.76898,0.0807 -0.59804,0 -0.74444,-0.10293 -0.65856,-0.46302 z m 30.132962,-0.13229 c 0.242351,-1.02683 2.51541,-11.85548 2.51541,-11.98319 0,-0.0668 0.652576,-0.1215 1.450168,-0.1215 1.291264,0 1.463564,0.0652 1.572424,0.59532 0.06724,0.32742 0.257593,3.03566 0.423002,6.0183 0.16541,2.98265 0.340532,5.46279 0.389163,5.51142 0.09483,0.0948 0.444989,-1.43485 1.806495,-7.8917 0.845839,-4.01134 0.880409,-4.10288 1.580499,-4.18477 0.461074,-0.0539 0.712402,0.0402 0.706345,0.26459 -0.0052,0.19156 -0.578244,3.02721 -1.273495,6.30143 l -1.264089,5.95312 -1.466855,0.0782 -1.466858,0.0782 -0.161364,-1.66573 c -0.08875,-0.91614 -0.243382,-3.33259 -0.343625,-5.36989 -0.273013,-5.54868 -0.395661,-5.6289 -1.398201,-0.91455 -1.875293,8.81837 -1.599282,7.92601 -2.451545,7.92601 -0.651295,0 -0.738203,-0.0838 -0.617474,-0.59531 z m 14.286518,0 c 0.23013,-0.98191 2.251808,-10.57073 2.251808,-10.68032 0,-0.0558 -0.892968,-0.10145 -1.984375,-0.10145 -1.940277,0 -1.984375,-0.0147 -1.984375,-0.66146 v -0.66146 h 4.630209 4.630208 v 0.66146 c 0,0.64195 -0.0541,0.66146 -1.834253,0.66146 -1.517042,0 -1.858531,0.0801 -1.974633,0.46302 -0.171323,0.56509 -2.276531,10.49741 -2.276531,10.74062 0,0.0954 -0.359455,0.17344 -0.79879,0.17344 -0.693327,0 -0.78037,-0.0786 -0.659268,-0.59531 z m 7.016729,0.39688 c 0.0013,-0.10915 1.363631,-2.96665 3.027336,-6.35 l 3.024913,-6.15157 h 1.470583 c 1.221293,0 1.471858,0.0785 1.478118,0.46302 0.0042,0.25467 0.179346,2.66568 0.389337,5.35782 0.209992,2.69213 0.385194,5.34918 0.389337,5.90455 0.0071,0.94695 -0.03772,1.00455 -0.720066,0.92604 -0.688795,-0.0792 -0.731837,-0.16486 -0.806952,-1.60507 l -0.07935,-1.52136 h -2.583981 -2.583979 l -0.758757,1.5875 c -0.661894,1.38485 -0.853871,1.5875 -1.503857,1.5875 -0.409805,0 -0.744011,-0.0893 -0.74268,-0.19843 z m 7.935079,-5.58175 c 0,-2.09015 -0.331147,-6.12607 -0.502639,-6.12603 -0.16786,4e-5 -3.473083,6.87014 -3.468683,7.20986 0.0013,0.10914 0.895541,0.19844 1.986947,0.19844 h 1.984375 z m 18.405194,4.85843 c 0.09511,-0.50696 0.617871,-2.97751 1.161698,-5.4901 0.543828,-2.5126 0.940631,-4.65765 0.881785,-4.76679 -0.05884,-0.10914 -0.933402,-0.19844 -1.94346,-0.19844 -1.782511,0 -1.836467,-0.0194 -1.836467,-0.66146 v -0.66146 h 4.497916 4.497917 v 0.64937 c 0,0.61758 -0.08744,0.6532 -1.785937,0.72761 l -1.785938,0.0782 -1.1836,5.6224 -1.1836,5.62239 h -0.746618 c -0.709318,0 -0.737978,-0.0461 -0.573696,-0.92175 z m 30.0294595,0.47631 c 0.00875,-0.26433 0.5835809,-3.09997 1.27740305,-6.30143 l 1.26149892,-5.82084 1.46313263,-0.0782 1.4631325,-0.0782 0.1618801,1.93031 c 0.089032,1.06167 0.2417471,3.53765 0.3393678,5.50219 0.2290206,4.60891 0.4163827,5.12134 0.9553231,2.61274 0.2305658,-1.0732 0.8052752,-3.76699 1.2771331,-5.98618 l 0.857922,-4.0349 h 0.7603596 c 0.6531054,0 0.7408519,0.084 0.6220672,0.59532 -0.404503,1.74128 -2.5176242,11.73252 -2.5176242,11.9038 0,0.11049 -0.6960367,0.20088 -1.5467488,0.20088 H 2.9584796 L 2.7835847,140.1147 c -0.2846387,-5.70556 -0.5045815,-8.4199 -0.6689381,-8.25555 -0.084921,0.0849 -0.6989683,2.73618 -1.36455144,5.8917 -1.19902815,5.68455 -1.21670232,5.73806 -1.92288586,5.82101 -0.5473303,0.0643 -0.7090409,-0.0278 -0.6968278,-0.39687 z m 14.2715955,0.20921 c 0,-0.14926 0.475769,-2.50866 1.057265,-5.2431 0.581496,-2.73444 1.057746,-5.18007 1.058333,-5.43473 9.15e-4,-0.39698 -0.263107,-0.46302 -1.851014,-0.46302 -1.799167,0 -1.852084,-0.0189 -1.852084,-0.66146 v -0.66146 h 4.497917 4.497916 v 0.66146 c 0,0.63804 -0.06118,0.66146 -1.728094,0.66146 -1.335143,0 -1.764786,0.0956 -1.889453,0.42049 -0.08875,0.23127 -0.655201,2.76135 -1.258784,5.62239 -1.08558,5.14575 -1.105173,5.20282 -1.814716,5.28563 -0.394507,0.0461 -0.717286,-0.0384 -0.717286,-0.18766 z m 9.69626,-5.51845 c 1.535139,-3.16508 2.920047,-6.02788 3.077577,-6.36178 0.255757,-0.5421 0.444151,-0.59875 1.759935,-0.52917 l 1.47352,0.0779 0.308607,4.49792 c 0.169733,2.47386 0.378923,5.30159 0.464868,6.28386 l 0.15626,1.78593 h -0.795597 c -0.76436,0 -0.795597,-0.0459 -0.795597,-1.16898 0,-1.9973 -0.01229,-2.00602 -2.828737,-2.00602 h -2.507538 l -0.701633,1.5875 c -0.647745,1.46558 -0.766958,1.5875 -1.552228,1.5875 h -0.850598 z m 5.221602,-1.98438 c -0.09806,-1.78263 -0.256008,-3.45802 -0.351012,-3.72308 -0.125728,-0.35079 -0.65522,0.50011 -1.945833,3.127 -0.975204,1.98491 -1.7731,3.6603 -1.7731,3.72308 0,0.0628 0.955849,0.11415 2.124109,0.11415 h 2.124112 z m 18.282285,7.40833 c 0.194077,-0.58023 2.254019,-10.37472 2.254019,-10.71727 0,-0.23104 -0.551754,-0.32908 -1.852083,-0.32908 -1.799167,0 -1.852083,-0.0189 -1.852083,-0.66146 v -0.66146 h 4.497916 4.497917 v 0.66146 c 0,0.64256 -0.05292,0.66146 -1.852083,0.66146 -1.018646,0 -1.852084,0.061 -1.852084,0.13557 0,0.13021 -1.965515,9.42203 -2.252009,10.6462 -0.105624,0.45132 -0.328088,0.59531 -0.919728,0.59531 -0.506934,0 -0.741641,-0.11589 -0.669782,-0.33073 z M -188.08083,127.61775 c -1.06505,-0.46301 -1.92115,-1.82555 -1.92245,-3.0597 -0.001,-1.3817 0.99559,-5.70849 1.57893,-6.85193 1.54083,-3.02027 5.45387,-3.92886 7.3957,-1.71724 0.67513,0.76893 0.81396,1.15112 0.81396,2.24076 0,1.29421 -0.0122,1.31371 -0.82459,1.31371 -0.75017,0 -0.81245,-0.0635 -0.69003,-0.70393 0.33149,-1.73409 -0.99181,-2.96961 -2.81437,-2.62769 -1.78947,0.33571 -2.76227,1.78974 -3.47994,5.20142 -0.8048,3.82586 -0.35731,5.09756 1.79372,5.09756 1.56081,0 2.48902,-0.61889 3.14193,-2.09488 0.40847,-0.92343 0.65285,-1.16831 1.16587,-1.16831 0.80279,0 0.82506,0.42513 0.10275,1.96178 -0.66477,1.41423 -1.22541,1.94676 -2.54501,2.41738 -1.29765,0.4628 -2.63876,0.45958 -3.71647,-0.009 z m 11.1125,0 c -1.93635,-0.84179 -2.32915,-2.83277 -1.37578,-6.97344 0.98227,-4.26623 2.82573,-6.08968 5.86157,-5.79798 1.67542,0.16099 2.6232,0.87691 3.09698,2.33934 0.34405,1.06199 0.32536,1.42567 -0.20758,4.03979 -0.83797,4.11027 -1.65313,5.47651 -3.80364,6.37505 -1.20212,0.50228 -2.44204,0.50827 -3.57155,0.0172 z m 3.68041,-1.54406 c 0.28139,-0.17195 0.73883,-0.67715 1.01652,-1.12267 0.54431,-0.87324 1.58171,-4.93917 1.58171,-6.19922 0,-3.38023 -4.28588,-3.48391 -5.55992,-0.13449 -0.16606,0.43656 -0.5235,1.84853 -0.79431,3.1377 -0.56938,2.71055 -0.3446,4.00614 0.79798,4.59935 0.71332,0.37034 2.10941,0.23788 2.95802,-0.28067 z m 40.80808,1.56024 c -1.33671,-0.582 -1.96193,-1.60543 -1.96193,-3.21149 0,-2.11584 0.97881,-5.97301 1.87389,-7.38441 1.71346,-2.70184 5.89609,-3.05293 7.37974,-0.61946 0.88832,1.45701 0.66501,3.12478 -0.4184,3.12478 -0.55928,0 -0.63315,-0.12006 -0.63315,-1.02902 0,-1.98105 -1.80973,-2.94363 -3.68536,-1.9602 -1.27822,0.67019 -1.78459,1.48955 -2.41968,3.91526 -1.25019,4.77506 -0.67833,6.17609 2.44667,5.99428 0.89003,-0.0518 2.23751,-1.37414 2.46756,-2.42154 0.14537,-0.66187 0.30361,-0.79461 0.94725,-0.79461 0.9102,0 0.93071,0.12218 0.27395,1.63171 -1.11711,2.56759 -3.89623,3.78848 -6.27054,2.7547 z m 22.64432,0.20356 c -1.7714,-0.58358 -2.38215,-1.50371 -2.3794,-3.58465 0.002,-1.70335 0.85782,-5.3995 1.57547,-6.80621 0.94812,-1.85846 2.81918,-2.8355 4.96657,-2.59346 1.52468,0.17186 2.4882,0.89468 2.956,2.21754 0.52179,1.47557 0.23366,2.47264 -0.71453,2.47264 -0.68467,0 -0.72368,-0.0616 -0.63405,-1.00141 0.2711,-2.8428 -3.57491,-3.26198 -5.21311,-0.56817 -0.63514,1.04439 -1.69738,6.04514 -1.47354,6.93698 0.25472,1.01489 1.03697,1.58393 2.17743,1.58393 1.55041,0 2.57353,-0.66672 3.14117,-2.04695 0.41971,-1.02056 0.60331,-1.19838 1.23821,-1.19922 0.80827,-10e-4 0.81232,0.16219 0.0492,1.98338 -0.82964,1.97998 -3.65744,3.27504 -5.68943,2.6056 z m 10.37116,-0.25351 c -1.71809,-0.87929 -2.11523,-2.5769 -1.40194,-5.99263 0.62885,-3.01136 1.138161,-4.31156 2.070024,-5.28445 1.671907,-1.74551 4.748897,-1.99961 6.233726,-0.51478 1.108043,1.10804 1.244954,2.90111 0.475707,6.23005 -0.650959,2.81704 -1.679366,4.67862 -2.946699,5.33398 -1.267047,0.65522 -3.383131,0.76403 -4.430818,0.22783 z m 3.848994,-1.57656 c 1.008018,-0.66048 1.554263,-1.83536 2.146538,-4.61686 0.630045,-2.95886 0.535581,-4.00636 -0.429773,-4.76571 -1.374447,-1.08114 -3.511799,-0.30292 -4.461743,1.62453 -0.581726,1.18034 -1.421011,4.73938 -1.421011,6.0259 0,2.01949 2.280391,2.96763 4.165989,1.73214 z m 40.634711,1.61653 c -1.003356,-0.43643 -1.643073,-1.33738 -1.848509,-2.60333 -0.181282,-1.1171 0.815927,-5.99493 1.497034,-7.3227 1.263671,-2.46344 4.20425,-3.58383 6.520881,-2.48452 1.131321,0.53685 1.681977,1.56032 1.681977,3.12619 0,1.16802 -0.02419,1.20376 -0.814774,1.20376 -0.76314,0 -0.803992,-0.0491 -0.644676,-0.77444 0.243065,-1.10667 -0.445513,-2.31202 -1.446368,-2.53184 -1.26574,-0.278 -2.285497,0.0884 -3.265601,1.17322 -0.734838,0.81337 -1.016709,1.47337 -1.469922,3.44177 -0.895797,3.89064 -0.735335,5.00877 0.795369,5.54238 1.678099,0.58499 3.433935,-0.37353 4.189418,-2.28703 0.270999,-0.68639 0.489945,-0.85989 1.085093,-0.85989 h 0.745591 l -0.409705,1.20241 c -0.969092,2.84413 -4.014862,4.30538 -6.615808,3.17402 z m 22.224999,0 c -1.003355,-0.43643 -1.643073,-1.33738 -1.848508,-2.60333 -0.181282,-1.1171 0.815927,-5.99493 1.497033,-7.3227 1.263671,-2.46344 4.204251,-3.58383 6.520881,-2.48452 1.131322,0.53685 1.681978,1.56032 1.681978,3.12619 0,1.17045 -0.02276,1.20376 -0.822434,1.20376 -0.734226,0 -0.805471,-0.0676 -0.664289,-0.6301 0.357005,-1.42242 -0.756827,-2.80948 -2.256052,-2.80948 -0.912521,0 -2.17933,0.75048 -2.793386,1.65485 -0.631113,0.92949 -1.665922,4.93138 -1.665922,6.44258 0,1.26398 0.359828,1.84594 1.356111,2.19324 1.678098,0.58499 3.433934,-0.37353 4.189418,-2.28703 0.270999,-0.68639 0.489944,-0.85989 1.085093,-0.85989 h 0.74559 l -0.409704,1.20241 c -0.969092,2.84413 -4.014862,4.30538 -6.615809,3.17402 z m 11.097739,-0.006 c -1.128474,-0.49058 -1.921206,-1.83014 -1.922449,-3.24856 -0.0016,-1.83413 1.016902,-5.9168 1.797968,-7.20709 1.796502,-2.96774 6.43486,-3.2113 7.609673,-0.39958 0.209524,0.50146 0.380953,1.27402 0.380953,1.7168 0,1.24699 -1.011823,5.49245 -1.567027,6.57501 -1.254453,2.44601 -3.999532,3.56311 -6.299118,2.56342 z m 3.790791,-1.63327 c 0.826985,-0.54186 1.592935,-2.21252 2.081554,-4.5402 0.782217,-3.72632 0.402254,-4.98768 -1.580779,-5.24766 -2.086494,-0.27354 -3.475787,1.33434 -4.221205,4.88538 -0.696055,3.31586 -0.486892,4.83657 0.735475,5.34728 0.720016,0.30082 2.178741,0.0834 2.984955,-0.4448 z m 40.697705,1.64945 c -1.325657,-0.57719 -1.962798,-1.60814 -1.95621,-3.16533 0.0087,-2.05464 0.963626,-5.96088 1.786168,-7.3065 2.295763,-3.75569 8.284885,-2.7965 7.946567,1.27268 -0.0702,0.84429 -0.179535,0.9876 -0.808773,1.06 -0.69823,0.0803 -0.727604,0.0357 -0.727604,-1.10528 0,-1.95367 -1.505334,-2.76937 -3.54104,-1.91879 -1.246381,0.52077 -1.941513,1.64809 -2.57609,4.17775 -1.187325,4.73312 -0.65325,5.99627 2.458757,5.8152 0.89003,-0.0518 2.23751,-1.37413 2.46756,-2.42154 0.14537,-0.66186 0.303612,-0.7946 0.947253,-0.7946 0.886619,0 0.927881,0.17416 0.362443,1.52985 -1.096592,2.62917 -3.943784,3.90816 -6.359031,2.85656 z m -191.139019,0.0433 c 0,-0.0375 0.59532,-2.85246 1.32292,-6.2554 0.7276,-3.40293 1.32292,-6.22972 1.32292,-6.28175 0,-0.052 0.65257,-0.0946 1.45016,-0.0946 1.72207,0 1.6247,-0.23049 1.84416,4.36563 0.22164,4.6419 0.46523,7.57344 0.61668,7.42198 0.0731,-0.0731 0.68344,-2.72546 1.3563,-5.89412 1.21758,-5.73386 1.22682,-5.76159 1.94679,-5.84492 0.39787,-0.046 0.72341,0.0229 0.72341,0.15323 0,0.28494 -2.34188,11.37469 -2.54154,12.03518 -0.1105,0.36557 -0.43683,0.46302 -1.55048,0.46302 h -1.41053 l -0.1542,-1.78593 c -0.0848,-0.98227 -0.22062,-3.09563 -0.30181,-4.69636 -0.20638,-4.0691 -0.4146,-5.68928 -0.64607,-5.02708 -0.10173,0.29104 -0.70299,2.99971 -1.33612,6.01927 l -1.15115,5.4901 h -0.74572 c -0.41014,0 -0.74572,-0.0307 -0.74572,-0.0682 z m 14.2888,0.002 c 7.9e-4,-0.0364 0.53649,-2.5654 1.19062,-5.62006 0.65413,-3.05464 1.18933,-5.58472 1.18933,-5.62238 0,-0.0377 -0.89297,-0.0685 -1.98437,-0.0685 -1.94028,0 -1.98438,-0.0147 -1.98438,-0.66146 v -0.66146 h 4.63021 4.63021 v 0.64987 c 0,0.62263 -0.0797,0.65312 -1.90231,0.7276 l -1.90231,0.0777 -1.18178,5.6224 -1.18178,5.62239 h -0.75237 c -0.4138,0 -0.75179,-0.0298 -0.75107,-0.0661 z m 7.14245,-0.20062 c 0,-0.14674 1.36972,-3.00424 3.04381,-6.35 l 3.04382,-6.08322 h 1.4541 c 1.32934,0 1.45475,0.0511 1.46164,0.59532 0.004,0.32742 0.17935,2.79796 0.38934,5.4901 0.53863,6.90543 0.55062,6.66742 -0.33073,6.56601 -0.68879,-0.0793 -0.73184,-0.16487 -0.80695,-1.60507 l -0.0794,-1.52136 h -2.58398 -2.58398 l -0.75876,1.5875 c -0.66189,1.38485 -0.85387,1.5875 -1.50386,1.5875 -0.4098,0 -0.7451,-0.12005 -0.7451,-0.26678 z m 7.826,-7.8648 c -0.17946,-3.45986 -0.26035,-4.02018 -0.54002,-3.7405 -0.0673,0.0673 -0.89582,1.75401 -1.84116,3.74826 l -1.71881,3.62591 h 2.14423 2.14423 z m 18.36882,7.95072 c 0.001,-0.28117 2.0869,-10.12775 2.2733,-10.7332 0.12706,-0.41274 -0.0749,-0.46302 -1.85966,-0.46302 -1.9593,0 -2.00221,-0.0142 -2.00221,-0.66146 v -0.66146 h 4.49792 4.49792 v 0.64937 c 0,0.61758 -0.0875,0.6532 -1.78594,0.72761 l -1.78594,0.0782 -1.19456,5.55625 c -1.18658,5.51908 -1.19941,5.55681 -1.91823,5.63997 -0.39802,0.046 -0.72319,-0.0135 -0.7226,-0.13229 z m 30.171761,-0.28216 c 0.0057,-0.25466 0.577607,-3.08239 1.270945,-6.28385 l 1.260612,-5.82084 1.468136,-0.0782 1.468139,-0.0782 0.165052,2.06256 c 0.09078,1.1344 0.243049,3.6699 0.338378,5.63443 0.09533,1.96453 0.255747,3.7279 0.356479,3.91859 0.100732,0.19069 0.630039,-1.77384 1.176237,-4.36562 0.546198,-2.59179 1.11285,-5.27789 1.259231,-5.96912 0.245465,-1.15912 0.327496,-1.25677 1.055799,-1.25677 0.627335,0 0.761775,0.0952 0.654015,0.46302 -0.0746,0.25467 -0.698976,3.11217 -1.387498,6.35 l -1.251861,5.88698 h -1.49408 -1.494081 l -0.331828,-5.88551 c -0.182504,-3.23703 -0.379296,-5.93297 -0.437313,-5.99099 -0.17058,-0.17058 -0.304123,0.36777 -1.436534,5.79109 -1.340046,6.41771 -1.23048,6.08541 -2.006529,6.08541 -0.440526,0 -0.640368,-0.14611 -0.633299,-0.46302 z m 14.27824,0.14987 c 5.29e-4,-0.19157 0.476837,-2.58558 1.058333,-5.32002 0.581496,-2.73444 1.057264,-5.14545 1.057264,-5.35781 0,-0.30164 -0.405145,-0.3861 -1.852083,-0.3861 -1.799167,0 -1.852083,-0.0189 -1.852083,-0.66146 v -0.66146 h 4.497916 4.497917 v 0.66146 c 0,0.64114 -0.05565,0.66146 -1.811139,0.66146 h -1.811139 l -1.186328,5.6224 c -1.171303,5.55119 -1.195277,5.62345 -1.893028,5.70611 -0.450747,0.0534 -0.706313,-0.0424 -0.70563,-0.26458 z m 6.878097,0.18232 c 0,-0.072 1.398985,-2.93406 3.108854,-6.36023 l 3.108855,-6.2294 1.455208,0.0764 1.455208,0.0764 0.308608,4.49792 c 0.169732,2.47386 0.378923,5.30159 0.464867,6.28386 l 0.15626,1.78593 h -0.795596 c -0.76436,0 -0.795597,-0.0459 -0.795597,-1.16898 0,-1.9951 -0.01525,-2.00602 -2.802623,-2.00602 h -2.481426 l -0.801368,1.5875 c -0.710181,1.40686 -0.891254,1.5875 -1.59131,1.5875 -0.434467,0 -0.78994,-0.0589 -0.78994,-0.13083 z m 8.028565,-7.47594 c -0.283001,-5.00306 -0.27858,-5.0016 -2.305363,-0.76067 -0.964948,2.0191 -1.754452,3.71574 -1.754452,3.77031 0,0.0546 0.953024,0.0992 2.117834,0.0992 h 2.117833 z m 18.324943,7.14375 c 0.373235,-1.56794 2.221492,-10.42546 2.221492,-10.64619 0,-0.15526 -0.778621,-0.26787 -1.852083,-0.26787 -1.799167,0 -1.852084,-0.0189 -1.852084,-0.66146 v -0.66146 h 4.497917 4.497917 v 0.66146 c 0,0.64194 -0.05412,0.66146 -1.834037,0.66146 h -1.834036 l -0.414496,1.91823 c -1.306899,6.04813 -2.002848,9.30683 -2.002848,9.37811 0,0.0444 -0.346041,0.0807 -0.76898,0.0807 -0.597961,0 -0.744468,-0.10297 -0.658762,-0.46302 z m 30.130419,-0.13229 c 0.204547,-0.88392 1.891104,-8.82676 2.247233,-10.58333 l 0.308441,-1.52136 h 1.5284897 1.5284926 l 0.175313,3.63802 c 0.2654696,5.50888 0.4941781,8.2966 0.6665277,8.12425 0.085463,-0.0855 0.6999578,-2.73717 1.365541,-5.89268 1.1990282,-5.68456 1.2167023,-5.73806 1.9228858,-5.82102 0.4576683,-0.0537 0.7103216,0.0409 0.705993,0.26459 -0.00371,0.19157 -0.5765958,3.02721 -1.2730903,6.30143 l -1.2663514,5.95312 -1.4674453,0.0782 -1.4674453,0.0782 -0.1657693,-1.93031 c -0.09117,-1.06168 -0.2444036,-3.53766 -0.3405135,-5.50219 -0.096112,-1.96453 -0.2556431,-3.79706 -0.3545179,-4.07229 -0.1140512,-0.31749 -0.4963265,0.98823 -1.0457312,3.57187 -1.8707976,8.79765 -1.5956756,7.90875 -2.4478326,7.90875 -0.65048,0 -0.738441,-0.0844 -0.62022,-0.59531 z m 14.2890634,0 c 0.2864935,-1.22417 2.2520089,-10.51599 2.2520089,-10.6462 0,-0.0746 -0.8929687,-0.13557 -1.9843749,-0.13557 -1.9402769,0 -1.984375,-0.0147 -1.984375,-0.66146 v -0.66146 h 4.6302083 4.6302082 v 0.66146 c 0,0.64239 -0.053253,0.66146 -1.847043,0.66146 -1.6968258,0 -1.8586343,0.0484 -1.9895846,0.59531 -0.3503559,1.4632 -2.2487889,10.39163 -2.2487889,10.57616 0,0.11309 -0.359455,0.20561 -0.7987903,0.20561 -0.6932692,0 -0.7803859,-0.0786 -0.6594687,-0.59531 z m 7.1645753,0 c 0.1021503,-0.32742 1.4799093,-3.18492 3.0616893,-6.35 l 2.875963,-5.75469 h 1.454057 c 0.982837,0 1.4565,0.10718 1.461595,0.33073 0.0042,0.1819 0.179346,2.53339 0.389337,5.22552 0.544434,6.97976 0.53901,7.14375 -0.236275,7.14375 -0.749911,0 -0.954349,-0.42972 -0.954349,-2.00601 v -1.16899 h -2.597185 -2.597184 l -0.758756,1.5875 c -0.6681,1.39783 -0.8499109,1.5875 -1.5216879,1.5875 -0.6698271,0 -0.7402645,-0.0726 -0.5772044,-0.59531 z m 7.7858483,-5.42396 c -0.0023,-2.20896 -0.315097,-5.88698 -0.500652,-5.88694 -0.16813,4e-5 -3.47349,6.86963 -3.469085,7.20986 0.0014,0.10914 0.895541,0.19844 1.986947,0.19844 h 1.984375 l -0.0016,-1.52136 z m 18.257835,5.90001 c 0,-0.19521 2.133521,-10.29157 2.28111,-10.7948 0.120878,-0.41214 -0.0842,-0.46302 -1.866405,-0.46302 -1.959298,0 -2.002205,-0.0142 -2.002205,-0.66146 v -0.66146 h 4.497917 4.497916 v 0.64937 c 0,0.61758 -0.08744,0.6532 -1.785937,0.72761 l -1.785938,0.0782 -1.1836,5.6224 -1.1836,5.62239 h -0.734629 c -0.404045,0 -0.734629,-0.0537 -0.734629,-0.11926 z"
       id="path3772" /></g></svg>
