<?xml version="1.0" encoding="UTF-8" standalone="no"?>
<!-- Created with Inkscape (http://www.inkscape.org/) -->

<svg
   width="58.319256mm"
   height="3.6047802mm"
   viewBox="0 0 58.319256 3.6047802"
   version="1.1"
   id="svg5"
   xml:space="preserve"
   sodipodi:docname="logo.svg"
   inkscape:version="1.2.2 (732a01da63, 2022-12-09)"
   xmlns:inkscape="http://www.inkscape.org/namespaces/inkscape"
   xmlns:sodipodi="http://sodipodi.sourceforge.net/DTD/sodipodi-0.dtd"
   xmlns="http://www.w3.org/2000/svg"
   xmlns:svg="http://www.w3.org/2000/svg"><sodipodi:namedview
     id="namedview6"
     pagecolor="#ffffff"
     bordercolor="#000000"
     borderopacity="0.25"
     inkscape:showpageshadow="2"
     inkscape:pageopacity="0.0"
     inkscape:pagecheckerboard="0"
     inkscape:deskcolor="#d1d1d1"
     inkscape:document-units="mm"
     showgrid="false"
     inkscape:zoom="0.73851712"
     inkscape:cx="-71.0884"
     inkscape:cy="-125.92802"
     inkscape:window-width="1920"
     inkscape:window-height="1009"
     inkscape:window-x="-8"
     inkscape:window-y="-8"
     inkscape:window-maximized="1"
     inkscape:current-layer="svg5" /><defs
     id="defs2" /><g
     id="layer1"
     transform="translate(-54.981796,-181.97285)"><path
       style="fill:#e00000;fill-opacity:0.968627;stroke-width:0.0846667"
       d="m 54.981796,183.79402 v -1.78311 h 0.633387 c 0.588168,0 0.636334,0.0136 0.674673,0.1905 0.04111,0.18966 0.386316,2.84238 0.385632,2.96333 -1.97e-4,0.0349 0.03774,0.0635 0.08431,0.0635 0.05347,0 0.08467,-0.59267 0.08467,-1.60867 v -1.60866 h 0.296333 0.296333 v 1.778 1.778 h -0.635 c -0.34925,0 -0.635073,-0.0286 -0.635162,-0.0635 -4.71e-4,-0.18362 -0.350607,-2.81009 -0.403509,-3.02684 -0.03621,-0.14836 -0.0796,0.43263 -0.104329,1.397 l -0.04233,1.651 -0.3175,0.0263 -0.3175,0.0263 z m 4.530457,1.32839 c 0.06144,-0.24448 0.25307,-1.04458 0.425837,-1.778 l 0.314121,-1.3335 h 0.60861 0.60861 l 0.398018,1.67216 c 0.21891,0.91969 0.397493,1.71979 0.39685,1.778 -7.12e-4,0.0642 -0.11726,0.10584 -0.296284,0.10584 -0.279107,0 -0.300317,-0.0207 -0.391051,-0.381 l -0.09594,-0.381 h -0.62373 -0.623729 l -0.09594,0.381 c -0.09256,0.36758 -0.107228,0.381 -0.416515,0.381 h -0.320578 z m 1.767365,-0.97891 c 0.04756,-0.0769 -0.317718,-1.76871 -0.399557,-1.85055 -0.02875,-0.0288 -0.06961,8e-4 -0.09079,0.0657 -0.06779,0.20761 -0.388808,1.65934 -0.388808,1.75827 0,0.10985 0.812512,0.13444 0.879155,0.0266 z m 3.927677,-0.0371 -0.02316,-1.4605 -0.486834,-0.0254 -0.486833,-0.0254 v -0.29211 -0.2921 h 1.27 1.27 v 0.29633 0.29633 h -0.465667 -0.465666 v 1.48167 1.48167 h -0.29434 -0.294333 z m 3.744501,-0.3175 v -1.778 h 0.296334 0.296333 v 0.71966 0.71967 h 0.592667 0.592667 v -0.71967 -0.71966 h 0.296333 0.296333 v 1.778 1.778 H 71.02613 70.729797 v -0.762 -0.762 H 70.13713 69.544463 v 0.762 0.762 H 69.24813 68.951796 Z m 4.399642,1.7145 c -0.0017,-0.0349 0.177134,-0.83503 0.397327,-1.778 l 0.400353,-1.7145 h 0.610547 0.610547 l 0.40061,1.67216 c 0.220335,0.91969 0.418568,1.71979 0.440517,1.778 0.02777,0.0736 -0.06279,0.10584 -0.297766,0.10584 -0.329548,0 -0.339983,-0.009 -0.433611,-0.381 l -0.09594,-0.381 h -0.623729 -0.62373 l -0.09594,0.381 c -0.09073,0.36033 -0.111944,0.381 -0.391052,0.381 -0.162312,0 -0.296475,-0.0286 -0.298139,-0.0635 z m 1.86653,-1.35467 c 0.0036,-0.27099 -0.386964,-1.79746 -0.454142,-1.77507 -0.09754,0.0325 -0.490329,1.66551 -0.425746,1.77 0.05337,0.0864 0.878753,0.0911 0.879888,0.005 z m 3.047162,-0.35983 v -1.778 h 0.338667 0.338666 v 1.48166 1.48167 h 0.804334 0.804333 v 0.29633 0.29634 h -1.143 -1.143 z m 4.628445,1.72155 c -0.03104,-0.031 -0.05644,-0.16439 -0.05644,-0.29633 0,-0.23142 0.01494,-0.23989 0.423334,-0.23989 h 0.423333 v -1.18533 -1.18534 h -0.423333 -0.423334 v -0.29633 -0.29633 h 1.185334 1.185333 v 0.29633 0.29633 h -0.423333 -0.423334 v 1.18534 1.18533 h 0.423334 0.423333 v 0.29633 0.29634 h -1.128889 c -0.620889,0 -1.154289,-0.0254 -1.185333,-0.0565 z m 4.684889,-1.72155 v -1.778 h 1.100666 1.100667 v 0.29633 0.29633 H 88.975464 88.17113 v 0.42334 0.42333 h 0.762 0.762001 v 0.29633 0.29634 h -0.766425 -0.766425 l 0.02559,0.4445 0.02559,0.4445 0.783166,0.0243 0.783167,0.0243 v 0.29316 0.29316 h -1.100667 -1.100666 z m 8.974667,0 v -1.778 h 0.538676 0.538677 l 0.05285,0.44964 c 0.02907,0.2473 0.07835,0.95357 0.109524,1.56949 0.08732,1.72524 0.189896,1.50497 0.329143,-0.7068 0.02638,-0.4191 0.06691,-0.88583 0.09006,-1.03717 l 0.04208,-0.27516 h 0.546497 0.546497 v 1.78336 1.78337 l -0.275167,-0.0265 -0.275167,-0.0265 0.01275,-1.5875 c 0.0072,-0.89444 -0.02054,-1.5875 -0.0635,-1.5875 -0.04193,0 -0.07672,0.0667 -0.07729,0.14817 -5.93e-4,0.0815 -0.05725,0.77682 -0.125955,1.54517 -0.0687,0.76835 -0.125379,1.42557 -0.125954,1.4605 -5.93e-4,0.0349 -0.207569,0.0635 -0.459985,0.0635 -0.547608,0 -0.501479,0.12659 -0.647855,-1.778 -0.05547,-0.72179 -0.133935,-1.34853 -0.174365,-1.39277 -0.04181,-0.0457 -0.07351,0.62063 -0.07351,1.54517 v 1.6256 h -0.254 -0.254 z m 5.280239,1.61551 c -0.4196,-0.25585 -0.56065,-0.74203 -0.52571,-1.81201 0.0321,-0.98305 0.14306,-1.24681 0.62942,-1.49615 0.36078,-0.18496 1.08213,-0.15747 1.368,0.0521 0.41423,0.30372 0.5291,0.6558 0.52925,1.62206 1.7e-4,1.01721 -0.11551,1.37593 -0.52394,1.62494 -0.37387,0.22794 -1.11062,0.23244 -1.47702,0.009 z m 1.02363,-0.39811 c 0.25968,-0.0996 0.38485,-0.50247 0.38355,-1.23437 -0.001,-0.78761 -0.10921,-1.08636 -0.43316,-1.20029 -0.35583,-0.12514 -0.66187,7.3e-4 -0.79884,0.32855 -0.14188,0.33956 -0.16081,1.34313 -0.0323,1.71179 0.12294,0.35266 0.52279,0.53168 0.88074,0.39432 z m 4.02546,-0.92107 v -1.48167 h -0.46566 -0.46567 v -0.29633 -0.29633 h 1.27 1.27 v 0.2921 0.29211 l -0.48683,0.0254 -0.48684,0.0254 -0.0232,1.4605 -0.0232,1.4605 h -0.29433 -0.29434 z m 3.55483,1.37583 c -6.7e-4,-0.0582 0.17794,-0.85831 0.39685,-1.778 l 0.39802,-1.67216 h 0.60861 0.60861 l 0.31412,1.3335 c 0.17277,0.73342 0.3644,1.53352 0.42584,1.778 l 0.11171,0.4445 h -0.32901 c -0.28992,0 -0.33518,-0.0277 -0.38083,-0.23284 -0.12355,-0.55514 -0.0867,-0.52916 -0.7514,-0.52916 h -0.61925 l -0.0959,0.381 c -0.0907,0.36033 -0.11195,0.381 -0.39105,0.381 -0.17903,0 -0.29558,-0.0416 -0.29629,-0.10584 z m 1.86384,-1.3271 c 0,-0.0925 -0.33184,-1.60013 -0.39274,-1.7844 -0.0373,-0.11289 -0.0496,-0.11289 -0.11064,0 -0.067,0.12395 -0.42795,1.62894 -0.42795,1.7844 0,0.043 0.20955,0.0783 0.46566,0.0783 0.25612,0 0.46567,-0.0352 0.46567,-0.0783 z"
       id="path854" /></g></svg>
